<svg version="1.1" id="Layer_1" xmlns="http://www.w3.org/2000/svg" xmlns:xlink="http://www.w3.org/1999/xlink" x="0px" y="0px"
	 width="100%" viewBox="0 0 266 614" enable-background="new 0 0 266 614" xml:space="preserve">
<path fill="none" opacity="1.000000" stroke="#ffffff" stroke-linecap="round" stroke-linejoin="round" stroke-width="2.000000"
	d="
M90.500000,335.000000 
	C90.500000,415.666656 90.500000,496.333344 90.500000,577.250000 
	C92.500000,577.250000 94.500000,577.250000 97.000000,577.250000 
	C97.000000,496.334015 97.000000,415.667023 97.000000,335.000000 
"/>
<path fill="none" opacity="1.000000" stroke="#ffffff" stroke-linecap="round" stroke-linejoin="round" stroke-width="2.000000"
	d="
M108.500000,335.000000 
	C108.500000,415.666656 108.500000,496.333344 108.500000,577.250000 
	C106.500000,577.250000 104.500000,577.250000 102.000000,577.250000 
	C102.000000,496.334015 102.000000,415.667023 102.000000,335.000000 
"/>
<path fill="none" opacity="1.000000" stroke="#ffffff" stroke-linecap="round" stroke-linejoin="round" stroke-width="2.000000"
	d="
M125.500000,335.000000 
	C125.500000,415.666656 125.500000,496.333344 125.500000,577.250000 
	C127.500000,577.250000 129.500000,577.250000 132.000000,577.250000 
	C132.000000,496.334015 132.000000,415.667023 132.000000,335.000000 
"/>
<path fill="none" opacity="1.000000" stroke="#ffffff" stroke-linecap="round" stroke-linejoin="round" stroke-width="2.000000"
	d="
M143.500000,335.000000 
	C143.500000,415.666656 143.500000,496.333344 143.500000,577.250000 
	C141.500000,577.250000 139.500000,577.250000 136.972504,577.250000 
	C137.236771,496.333527 135.761734,415.669556 137.000000,335.000000 
"/>
<path fill="none" opacity="1.000000" stroke="#ffffff" stroke-linecap="round" stroke-linejoin="round" stroke-width="2.000000"
	d="
M160.500000,335.000000 
	C160.500000,415.666656 160.500000,496.333344 160.500000,577.250000 
	C162.320923,577.250000 164.158936,577.250000 167.000000,577.250000 
	C167.000000,496.669403 167.000000,415.834717 167.000000,335.000000 
"/>
<path fill="none" opacity="1.000000" stroke="#ffffff" stroke-linecap="round" stroke-linejoin="round" stroke-width="2.000000"
	d="
M178.500000,335.000000 
	C178.500000,415.666656 178.500000,496.333344 178.500000,577.000000 
	C171.500000,577.946838 171.500000,577.946838 171.500000,571.000000 
	C171.500000,494.166656 171.497742,417.333344 171.513580,340.500000 
	C171.513962,338.661346 171.156647,336.771820 172.000000,335.000000 
"/>
<path fill="none" opacity="1.000000" stroke="#ffffff" stroke-linecap="round" stroke-linejoin="round" stroke-width="2.000000"
	d="
M113.500000,335.000000 
	C113.500000,415.667023 113.500000,496.334015 113.500000,576.932373 
	C120.500000,577.879211 120.500000,577.879211 120.500000,571.500000 
	C120.500000,492.666656 120.500000,413.833344 120.500000,335.000000 
"/>
<path fill="none" opacity="1.000000" stroke="#ffffff" stroke-linecap="round" stroke-linejoin="round" stroke-width="2.000000"
	d="
M183.500000,335.000000 
	C183.500000,415.667023 183.500000,496.334015 183.500000,576.932373 
	C190.500000,577.879211 190.500000,577.879211 190.500000,571.500000 
	C190.500000,492.666656 190.500000,413.833344 190.500000,335.000000 
"/>
<path fill="none" opacity="1.000000" stroke="#ffffff" stroke-linecap="round" stroke-linejoin="round" stroke-width="4.000000"
	d="
M234.000000,177.500000 
	C235.297043,174.223190 234.074463,170.832474 234.472641,167.496735 
	C237.864044,139.084671 237.892960,110.542244 237.412445,82.001472 
	C237.288589,74.643921 236.490646,67.269226 235.036652,59.992676 
	C233.739960,53.503307 230.963348,48.079617 226.068115,43.428314 
	C218.316269,36.062744 209.983200,29.465870 201.537354,22.951571 
	C195.852310,18.566675 189.390381,16.311113 182.490555,15.590496 
	C172.694443,14.567393 162.798264,14.479797 153.012970,13.384112 
	C147.016205,12.712640 141.457367,14.881592 135.504883,14.946586 
	C127.720871,15.031578 120.274597,12.494188 112.491173,13.426315 
	C101.692947,14.719488 90.674355,14.680159 80.046745,16.741060 
	C70.304710,18.630230 63.259445,26.201910 55.516590,32.022072 
	C50.030567,36.145821 45.337627,41.157791 40.493248,45.993237 
	C36.190403,50.288143 34.385166,55.725445 33.526474,61.503933 
	C29.898834,85.915771 31.584917,110.502556 31.816294,134.997009 
	C31.882687,142.025452 31.328564,149.483948 34.257374,156.599869 
	C35.665222,160.020416 35.052357,164.602951 34.331833,168.468658 
	C33.713402,171.786621 34.200150,174.833328 34.500000,178.000000 
"/>
<path fill="none" opacity="1.000000" stroke="#ffffff" stroke-linecap="round" stroke-linejoin="round" stroke-width="4.000000"
	d="
M34.000000,207.000000 
	C34.162357,213.166779 33.434277,219.379990 34.541435,225.492493 
	C35.615265,231.420990 32.496445,236.753860 32.498821,242.500000 
	C32.503029,252.666672 32.500000,262.833344 32.500000,273.000000 
	C32.500000,281.833344 31.544588,290.803650 32.785686,299.459045 
	C33.887596,307.143738 33.158276,314.915588 34.849304,322.533447 
	C35.341351,324.750000 36.425636,326.276215 37.560204,328.096436 
	C34.849995,329.338898 35.507408,331.794769 35.506622,334.000000 
	C35.496582,362.166656 35.711292,390.335785 35.385250,418.498657 
	C35.271317,428.340332 33.958233,438.180542 32.867638,447.985291 
	C32.700783,449.485352 32.538601,451.011169 32.535088,452.500092 
	C32.483959,474.166626 32.349224,495.835022 32.591797,517.498962 
	C32.664654,524.005615 33.420113,530.576599 34.606770,536.980225 
	C36.023663,544.626221 35.322548,552.364319 36.439842,560.008789 
	C37.700951,568.637329 38.415489,577.344238 39.531727,585.995911 
	C40.200180,591.176880 43.603390,593.524048 48.460072,595.121399 
	C57.201607,597.996338 66.173294,596.841980 75.008034,597.364075 
	C93.815086,598.475464 112.666206,599.336548 131.500137,599.353699 
	C149.166183,599.369873 166.831848,598.123535 184.500656,597.519165 
	C192.663483,597.239990 200.834778,596.994324 208.999466,597.062866 
	C214.121292,597.105835 218.834045,595.490662 223.461258,593.888123 
	C230.212021,591.550232 229.843353,585.007324 230.430084,579.492554 
	C231.970459,565.014587 233.223450,550.504944 234.481628,535.998413 
	C235.448349,524.852173 236.901337,513.762024 236.592072,502.497467 
	C236.207977,488.508026 236.442444,474.499695 236.517990,460.500092 
	C236.579727,449.064819 234.991791,437.790833 233.526260,426.496582 
	C233.334839,425.021423 233.500000,423.500000 233.500000,422.000000 
	C233.500000,392.666656 233.503296,363.333344 233.493393,334.000000 
	C233.492645,331.794800 234.150009,329.338898 231.425247,328.089752 
	C232.165543,327.165710 232.860901,325.590332 233.495682,325.614410 
	C240.135483,325.865936 239.883347,321.404236 239.460876,317.003754 
	C239.038925,312.608490 241.260757,307.674225 237.052277,304.020447 
	C234.771118,303.357971 232.799362,306.058441 230.500000,304.500000 
"/>
<path fill="none" opacity="1.000000" stroke="#ffffff" stroke-linecap="round" stroke-linejoin="round" stroke-width="3.000000"
	d="
M229.000000,329.500000 
	C229.000000,390.500000 229.229645,451.501617 228.798492,512.498596 
	C228.716187,524.142212 228.547058,535.853699 227.853500,547.491272 
	C227.307236,556.657104 227.073181,565.906250 225.728394,574.959656 
	C225.162521,578.769165 225.866760,582.780457 224.168961,586.575562 
	C223.479034,588.117798 224.666656,590.500000 225.000000,592.500000 
"/>
<path fill="none" opacity="1.000000" stroke="#ffffff" stroke-linecap="round" stroke-linejoin="round" stroke-width="3.000000"
	d="
M40.000000,329.500000 
	C40.000000,391.666656 39.677235,453.836151 40.218407,515.998108 
	C40.360378,532.306274 40.427147,548.730835 42.182690,564.980286 
	C42.974735,572.311462 42.613312,579.851440 44.981632,587.006104 
	C45.466316,588.470276 44.496967,589.707581 44.000000,591.000000 
"/>
<path fill="none" opacity="1.000000" stroke="#ffffff" stroke-linecap="round" stroke-linejoin="round" stroke-width="2.000000"
	d="
M148.500000,335.000000 
	C148.500000,415.500000 148.500000,496.000000 148.500000,576.500000 
"/>
<path fill="none" opacity="1.000000" stroke="#ffffff" stroke-linecap="round" stroke-linejoin="round" stroke-width="2.000000"
	d="
M78.500000,335.000000 
	C78.500000,415.500000 78.500000,496.000000 78.500000,576.500000 
"/>
<path fill="none" opacity="1.000000" stroke="#ffffff" stroke-linecap="round" stroke-linejoin="round" stroke-width="2.000000"
	d="
M85.500000,335.000000 
	C85.500000,415.500000 85.500000,496.000000 85.500000,576.500000 
"/>
<path fill="none" opacity="1.000000" stroke="#ffffff" stroke-linecap="round" stroke-linejoin="round" stroke-width="2.000000"
	d="
M155.500000,335.000000 
	C155.500000,415.500000 155.500000,496.000000 155.500000,576.500000 
"/>
<path fill="none" opacity="1.000000" stroke="#ffffff" stroke-linecap="round" stroke-linejoin="round" stroke-width="2.000000"
	d="
M73.500000,335.000000 
	C73.500000,367.333344 73.500000,399.666656 73.500000,432.250000 
	C71.500000,432.250000 69.500000,432.250000 67.000000,432.250000 
	C67.000000,399.668396 67.000000,367.334198 67.000000,335.000000 
"/>
<path fill="none" opacity="1.000000" stroke="#ffffff" stroke-linecap="round" stroke-linejoin="round" stroke-width="2.000000"
	d="
M195.500000,335.000000 
	C195.500000,367.333344 195.500000,399.666656 195.500000,432.250000 
	C197.320923,432.250000 199.158936,432.250000 201.182602,432.250000 
	C202.977859,429.156616 201.881989,425.466309 201.903641,421.999390 
	C202.076340,394.333832 202.006943,366.666656 201.978760,339.000031 
	C201.977402,337.666504 201.666656,336.333344 201.500000,335.000000 
"/>
<path fill="none" opacity="1.000000" stroke="#ffffff" stroke-linecap="round" stroke-linejoin="round" stroke-width="3.000000"
	d="
M220.000000,159.500000 
	C209.264969,155.388855 198.839661,150.578659 187.542633,147.825073 
	C178.095978,145.522491 168.586105,144.255249 159.017975,142.875381 
	C149.326035,141.477707 139.667297,142.169037 129.999420,142.044403 
	C102.398918,141.688568 75.904884,146.691696 50.991898,158.983582 
	C50.389610,159.280731 49.666668,159.333344 49.000004,159.500015 
"/>
<path fill="none" opacity="1.000000" stroke="#ffffff" stroke-linecap="round" stroke-linejoin="round" stroke-width="3.000000"
	d="
M175.500000,326.000000 
	C176.416794,324.792114 177.739471,325.000885 179.000000,325.000641 
	C186.166672,324.999298 193.340363,325.192230 200.497437,324.930176 
	C205.017563,324.764648 204.502258,320.217041 205.924911,317.461243 
	C206.400452,316.540070 206.000000,315.166656 206.000000,314.000000 
	C206.000000,293.833344 206.460754,273.652740 205.852753,253.504440 
	C205.374985,237.671631 208.749466,222.605911 212.510376,207.502579 
	C215.626205,194.989929 218.942612,182.526123 221.940643,169.985809 
	C222.987762,165.605896 220.211655,161.431763 220.491791,156.999481 
	C221.189026,145.967545 212.015060,144.706482 204.949951,142.137665 
	C193.049622,137.810806 180.596542,135.658600 168.022125,133.846466 
	C151.027206,131.397278 133.953964,131.262817 117.015388,132.261124 
	C95.919662,133.504440 74.944092,136.400436 55.401073,145.794189 
	C51.082375,147.870071 49.183235,149.958969 48.928997,154.496017 
	C48.638023,159.688797 46.171822,164.789536 47.147961,169.972137 
	C47.935261,174.152115 48.998291,178.339249 50.060467,182.484512 
	C54.015457,197.919281 57.971569,213.338760 61.181190,228.962784 
	C62.284435,234.333221 62.995831,239.585800 62.997307,245.000000 
	C63.003620,268.166656 62.984970,291.333374 63.035000,314.499939 
	C63.038216,315.988800 62.900826,317.443848 63.397762,319.031982 
	C64.616478,322.926727 66.323868,325.416534 71.005600,325.077301 
	C75.813690,324.728882 80.666878,324.974274 85.499886,325.013824 
	C87.213852,325.027863 89.058746,324.539612 90.500000,326.000000 
"/>
<path fill="none" opacity="1.000000" stroke="#ffffff" stroke-linecap="round" stroke-linejoin="round" stroke-width="4.000000"
	d="
M231.000000,328.000000 
	C224.333328,328.578003 217.599304,330.348938 211.029495,327.920227 
	C207.919556,326.770508 205.349182,328.527008 202.499939,328.513367 
	C194.500122,328.475037 186.381256,329.338989 178.538345,328.229004 
	C172.488968,327.372894 166.452621,326.444366 160.515625,327.134399 
	C146.008316,328.820526 131.497955,327.563324 116.999084,327.967163 
	C110.987755,328.134644 105.039162,326.231445 99.003502,327.026550 
	C89.036156,328.339630 78.974472,329.383179 69.018631,328.324738 
	C59.598602,327.323303 50.354202,330.368011 40.968956,328.671783 
	C39.988674,328.494598 39.116524,327.467529 38.000000,328.000000 
"/>
<path fill="none" opacity="1.000000" stroke="#ffffff" stroke-linecap="round" stroke-linejoin="round" stroke-width="3.000000"
	d="
M227.500000,58.500000 
	C227.589584,48.409706 222.408737,42.433659 213.035538,39.390522 
	C211.286972,38.822823 210.214523,36.338955 208.465317,35.579937 
	C196.790863,30.514124 185.766327,24.217337 172.526932,22.756046 
	C153.505234,20.656534 134.498962,20.717997 115.505173,21.202730 
	C103.210999,21.516483 90.664429,22.129259 79.018494,27.043821 
	C71.943207,30.029579 65.030403,33.324425 58.384571,37.307404 
	C54.626713,39.559570 50.796185,41.370731 47.376240,44.358330 
	C42.857609,48.305725 41.439465,52.950245 41.500000,58.500000 
"/>
<path fill="none" opacity="1.000000" stroke="#ffffff" stroke-linecap="round" stroke-linejoin="round" stroke-width="3.000000"
	d="
M206.000000,233.000000 
	C196.570572,231.163834 187.050079,230.019577 177.513916,228.883240 
	C172.526062,228.288879 167.188812,228.226059 162.963394,224.541977 
	C161.350433,223.135651 159.202087,222.948105 156.999786,222.959457 
	C142.000183,223.036880 126.999535,223.057251 112.000526,222.935501 
	C109.860649,222.918137 107.390244,223.008728 106.109077,224.125168 
	C101.067902,228.518173 94.940193,228.197479 89.004181,229.029800 
	C80.321274,230.247314 71.666664,231.666672 63.000000,233.000000 
"/>
<path fill="none" opacity="1.000000" stroke="#ffffff" stroke-linecap="round" stroke-linejoin="round" stroke-width="3.000000"
	d="
M214.000000,436.500000 
	C209.506027,436.829254 204.997696,436.001556 200.490997,436.957581 
	C195.204727,438.079010 193.017258,440.309174 193.011581,445.500000 
	C192.985352,469.499969 192.982956,493.500031 193.012604,517.500000 
	C193.019562,523.131165 195.928375,525.913086 201.499680,526.017456 
	C205.667999,526.095520 209.833328,526.333313 214.000000,526.500000 
"/>
<path fill="none" opacity="1.000000" stroke="#ffffff" stroke-linecap="round" stroke-linejoin="round" stroke-width="3.000000"
	d="
M55.000000,436.500000 
	C59.497787,436.726349 64.011002,436.117126 68.505020,436.973663 
	C73.770851,437.977264 75.982704,440.302216 75.988403,445.500000 
	C76.014687,469.499969 76.014107,493.500000 75.988655,517.500000 
	C75.983261,522.587708 72.533676,525.915222 67.500343,526.016907 
	C63.332008,526.101074 59.166668,526.333313 55.000000,526.500000 
"/>
<path fill="none" opacity="1.000000" stroke="#ffffff" stroke-linecap="round" stroke-linejoin="round" stroke-width="2.000000"
	d="
M195.500000,533.000000 
	C195.500000,547.666687 195.500000,562.333313 195.500000,577.250000 
	C197.320923,577.250000 199.158936,577.250000 201.500000,577.250000 
	C201.500000,562.008972 201.500000,546.507141 201.500000,530.298035 
	C199.292526,531.323181 196.413712,528.737183 195.000000,532.500000 
"/>
<path fill="none" opacity="1.000000" stroke="#ffffff" stroke-linecap="round" stroke-linejoin="round" stroke-width="3.000000"
	d="
M215.000000,330.000000 
	C215.000000,346.000000 215.000000,362.000000 215.000000,378.000000 
	C215.000000,425.500000 215.000000,473.000000 215.000000,520.500000 
	C215.000000,534.333313 215.393280,548.181396 214.876526,561.995361 
	C214.457275,573.202454 216.413361,584.053345 218.000000,595.000000 
"/>
<path fill="none" opacity="1.000000" stroke="#ffffff" stroke-linecap="round" stroke-linejoin="round" stroke-width="3.000000"
	d="
M54.000000,330.000000 
	C54.000000,354.166656 54.000000,378.333344 54.000000,402.500000 
	C54.000000,441.833344 54.000000,481.166656 54.000000,520.500000 
	C54.000000,537.000000 53.712627,553.507080 54.119602,569.997070 
	C54.327286,578.412048 51.611637,586.285767 51.000000,594.500000 
"/>
<path fill="none" opacity="1.000000" stroke="#ffffff" stroke-linecap="round" stroke-linejoin="round" stroke-width="2.000000"
	d="
M101.500000,29.500000 
	C99.833336,43.166668 97.870636,56.805470 96.581062,70.507629 
	C95.219597,84.973610 94.510010,99.500702 93.493713,113.999557 
	C93.201447,118.169106 92.833336,122.333336 92.500000,126.500000 
"/>
<path fill="none" opacity="1.000000" stroke="#ffffff" stroke-linecap="round" stroke-linejoin="round" stroke-width="2.000000"
	d="
M167.500015,29.499998 
	C168.333344,36.500000 169.197144,43.496544 169.991821,50.500931 
	C170.861191,58.163506 171.663193,65.833717 172.500839,73.499908 
	C173.682709,84.316505 174.265350,95.186859 175.293503,106.019600 
	C175.935776,112.786644 176.127548,119.668571 176.500000,126.500000 
"/>
<path fill="none" opacity="1.000000" stroke="#ffffff" stroke-linecap="round" stroke-linejoin="round" stroke-width="3.000000"
	d="
M56.500000,39.000000 
	C55.905109,42.537712 52.750931,43.873676 50.510193,46.010685 
	C47.388359,48.988007 45.644894,51.826710 45.585716,56.995258 
	C45.481293,66.115112 44.991184,75.440941 43.013439,84.502930 
	C42.909275,84.980202 43.016457,85.500618 42.997604,85.999908 
	C42.450348,100.495041 40.830242,115.058708 42.371273,129.460266 
	C42.946224,134.833466 41.857807,141.032928 45.824730,146.136246 
	C46.956738,147.592514 48.027470,148.639191 49.500000,149.500000 
"/>
<path fill="none" opacity="1.000000" stroke="#ffffff" stroke-linecap="round" stroke-linejoin="round" stroke-width="6.000000"
	d="
M235.000000,207.000000 
	C234.833328,213.166672 233.869461,219.434662 234.638214,225.482437 
	C237.938812,251.447769 235.896820,277.498383 236.500000,303.500000 
"/>
<path fill="none" opacity="1.000000" stroke="#ffffff" stroke-linecap="round" stroke-linejoin="round" stroke-width="3.000000"
	d="
M65.500000,233.000000 
	C66.153175,237.650253 67.075005,242.239944 67.048798,247.000275 
	C66.935036,267.666290 67.101639,288.334198 66.930046,308.999420 
	C66.885979,314.305267 67.395729,319.320862 70.000000,324.000000 
"/>
<path fill="none" opacity="1.000000" stroke="#ffffff" stroke-linecap="round" stroke-linejoin="round" stroke-width="3.000000"
	d="
M203.500000,233.000000 
	C202.517914,237.783463 201.915848,242.571503 201.945129,247.500320 
	C202.072800,268.999573 201.963196,290.500122 202.030457,311.999908 
	C202.044250,316.406128 200.970917,320.380402 198.500000,324.000000 
"/>
<path fill="none" opacity="1.000000" stroke="#ffffff" stroke-linecap="round" stroke-linejoin="round" stroke-width="3.000000"
	d="
M213.500000,40.000000 
	C214.415039,44.320793 218.488022,46.024261 221.081085,48.927582 
	C222.914551,50.980446 223.644196,52.608669 223.148483,55.525234 
	C222.278351,60.644867 223.574814,65.931587 224.308655,70.954910 
	C225.089935,76.302849 225.255753,81.725159 225.731308,87.024117 
	C226.981064,100.949852 228.027496,115.030144 226.737122,128.975677 
	C226.216171,134.605850 226.277054,140.739777 223.094086,146.056320 
	C222.251465,147.463760 221.780487,148.780487 220.000000,149.000000 
"/>
<path fill="none" opacity="1.000000" stroke="#ffffff" stroke-linecap="round" stroke-linejoin="round" stroke-width="2.000000"
	d="
M74.500000,234.500000 
	C77.268112,262.116028 76.397095,289.819763 76.500000,317.500000 
"/>
<path fill="none" opacity="1.000000" stroke="#ffffff" stroke-linecap="round" stroke-linejoin="round" stroke-width="2.000000"
	d="
M194.500000,234.500000 
	C191.492249,262.110260 192.741653,289.823090 192.500000,317.500000 
"/>
<path fill="none" opacity="1.000000" stroke="#ffffff" stroke-linecap="round" stroke-linejoin="round" stroke-width="2.000000"
	d="
M200.500000,49.500000 
	C206.156036,64.331436 212.075974,79.083740 215.958084,94.510551 
	C218.829849,105.922417 222.280975,117.217926 223.549667,128.994644 
	C223.679642,130.201172 224.500015,131.333328 225.000015,132.500000 
"/>
<path fill="none" opacity="1.000000" stroke="#ffffff" stroke-linecap="round" stroke-linejoin="round" stroke-width="3.000000"
	d="
M54.500000,581.500000 
	C56.077465,582.558716 57.843204,581.961853 59.500072,581.965210 
	C84.166634,582.015625 108.833336,582.000000 133.500000,582.000000 
"/>
<path fill="none" opacity="1.000000" stroke="#ffffff" stroke-linecap="round" stroke-linejoin="round" stroke-width="3.000000"
	d="
M124.500000,16.000000 
	C122.887482,17.547829 120.867149,16.862249 118.999809,16.997417 
	C106.948395,17.869768 94.756035,17.871546 83.027443,21.099709 
	C75.763725,23.098965 68.573631,25.773233 64.500000,33.000000 
"/>
<path fill="none" opacity="1.000000" stroke="#ffffff" stroke-linecap="round" stroke-linejoin="round" stroke-width="3.000000"
	d="
M204.500000,33.000000 
	C200.656387,25.765415 193.356384,23.354906 186.443649,21.179031 
	C178.442337,18.660511 169.852783,18.778185 161.537369,17.709274 
	C155.861557,16.979675 149.972748,18.314951 144.500000,16.000000 
"/>
<path fill="none" opacity="1.000000" stroke="#ffffff" stroke-linecap="round" stroke-linejoin="round" stroke-width="4.000000"
	d="
M233.000000,235.500000 
	C230.040436,239.786987 231.132324,244.876923 230.675995,249.517303 
	C228.944687,267.122864 229.543320,284.827454 229.490570,302.499969 
	C229.455338,314.306885 230.757401,312.178070 219.000656,310.993439 
	C217.829086,310.875397 216.663834,310.684296 215.500565,310.496490 
	C212.667068,310.039124 210.655792,309.807556 210.814941,305.493164 
	C211.435318,288.676575 210.823044,271.806335 211.712463,255.011246 
	C212.166000,246.447006 214.840347,238.001358 216.498322,229.499680 
	C218.838303,217.500961 221.013443,205.467056 223.582794,193.517792 
	C224.487259,189.311386 225.061081,184.988419 226.934219,180.969345 
	C228.384659,177.857285 231.196579,178.003311 233.489304,178.158279 
	C236.210693,178.342224 237.886749,180.603165 237.454819,183.493256 
	C236.595001,189.246536 239.632690,191.965179 244.454514,194.102615 
	C248.182434,195.755127 251.703583,198.074310 254.919693,200.602173 
	C256.700775,202.002136 258.779510,203.400009 259.579071,205.975464 
	C260.237305,208.095718 261.630096,210.221985 259.438599,211.920776 
	C258.012634,213.026154 256.310516,212.356613 254.435867,211.676880 
	C251.038589,210.445053 247.749008,208.982391 244.538391,207.421036 
	C241.197418,205.796326 237.977570,205.390945 234.500000,206.500000 
"/>
<path fill="none" opacity="1.000000" stroke="#ffffff" stroke-linecap="round" stroke-linejoin="round" stroke-width="4.000000"
	d="
M36.000000,236.500000 
	C38.806934,240.993057 38.094757,246.172882 38.373466,251.007294 
	C39.332939,267.650330 40.063133,284.317871 39.045956,301.002808 
	C38.884605,303.649475 39.476433,306.334259 39.459244,308.999725 
	C39.442474,311.600281 40.827911,312.235992 42.998619,311.987915 
	C47.003445,311.530151 51.062016,311.270752 54.971447,310.375336 
	C56.689812,309.981750 58.371239,309.386169 58.232613,305.990509 
	C57.553070,289.344788 58.353123,272.621429 57.258842,256.015900 
	C56.528450,244.932220 54.160427,233.824814 51.302990,223.052261 
	C48.754482,213.444366 47.935890,203.577194 45.508121,193.997940 
	C44.624321,190.510727 43.770390,187.013458 43.018238,183.496094 
	C42.309113,180.179993 39.983143,178.723190 36.996113,178.016418 
	C34.702118,177.473633 33.183651,178.895081 32.044540,180.531021 
	C31.031096,181.986481 31.462311,183.830521 31.526573,185.498978 
	C31.659189,188.941986 30.463375,191.010040 27.064304,192.634552 
	C21.229355,195.423218 15.529991,198.684067 11.012847,203.512024 
	C7.930442,206.806503 7.730748,209.397339 10.094895,213.671570 
	C16.051264,211.119522 22.106844,208.729111 27.962193,205.921158 
	C30.496754,204.705719 32.313618,206.589630 34.500000,206.500000 
"/>
<path fill="none" opacity="1.000000" stroke="#ffffff" stroke-linecap="round" stroke-linejoin="round" stroke-width="2.000000"
	d="
M55.500004,84.500000 
	C53.833336,90.833336 51.941246,97.117813 50.555660,103.512062 
	C48.721878,111.974632 46.176716,120.300583 45.444954,128.995361 
	C45.343941,130.195618 44.500000,131.333328 44.000000,132.500000 
"/>
<path fill="none" opacity="1.000000" stroke="#ffffff" stroke-linecap="round" stroke-linejoin="round" stroke-width="3.000000"
	d="
M157.000000,325.000000 
	C155.832870,323.084473 154.024506,322.958801 151.999832,322.969604 
	C140.333496,323.031982 128.666199,323.054352 117.000389,322.954224 
	C114.663116,322.934174 112.732658,323.531311 111.000000,325.000000 
"/>
<path fill="none" opacity="1.000000" stroke="#ffffff" stroke-linecap="round" stroke-linejoin="round" stroke-width="2.000000"
	d="
M72.500000,40.500000 
	C68.833328,49.333332 65.159256,58.163616 61.522594,67.009285 
	C61.346752,67.436996 61.500000,68.000000 61.500000,68.500000 
"/>
<path fill="none" opacity="1.000000" stroke="#ffffff" stroke-linecap="round" stroke-linejoin="round" stroke-width="4.000000"
	d="
M31.500000,304.000000 
	C30.054838,305.355255 29.387377,306.942688 29.460827,309.001404 
	C29.597416,312.829865 29.529453,316.666962 29.491714,320.499908 
	C29.453976,324.333282 31.146807,325.968719 35.000000,325.000000 
"/>
<path fill="none" opacity="1.000000" stroke="#ffffff" stroke-linecap="round" stroke-linejoin="round" stroke-width="2.000000"
	d="
M225.500000,142.500000 
	C227.414978,148.859238 227.622131,155.480713 228.531723,161.995575 
	C228.696793,163.177765 227.664581,164.762497 229.500000,165.500000 
"/>
<path fill="none" opacity="1.000000" stroke="#ffffff" stroke-linecap="round" stroke-linejoin="round" stroke-width="2.000000"
	d="
M43.000004,143.500000 
	C42.000004,150.666672 41.000004,157.833328 40.000004,165.000000 
"/>
<path fill="none" opacity="1.000000" stroke="#ffffff" stroke-linecap="round" stroke-linejoin="round" stroke-width="3.000000"
	d="
M235.000000,305.000000 
	C234.948074,311.514435 235.430954,318.056274 234.000000,324.500000 
"/>
<path fill="none" opacity="1.000000" stroke="#ffffff" stroke-linecap="round" stroke-linejoin="round" stroke-width="3.000000"
	d="
M57.500000,305.500000 
	C49.833332,305.166656 42.166668,304.833344 34.500000,304.500000 
"/>
<path fill="none" opacity="1.000000" stroke="#ffffff" stroke-linecap="round" stroke-linejoin="round" stroke-width="3.000000"
	d="
M229.500000,305.000000 
	C223.469284,304.060883 217.537094,306.668854 211.500000,305.500000 
"/>
<path fill="none" opacity="1.000000" stroke="#ffffff" stroke-linecap="round" stroke-linejoin="round" stroke-width="3.000000"
	d="
M40.000000,294.000000 
	C45.700573,293.013824 51.274982,296.317261 57.000000,294.500000 
"/>
<path fill="none" opacity="1.000000" stroke="#ffffff" stroke-linecap="round" stroke-linejoin="round" stroke-width="3.000000"
	d="
M228.500000,294.000000 
	C222.969528,293.160858 217.555908,296.178223 212.000000,294.500000 
"/>
<path fill="none" opacity="1.000000" stroke="#ffffff" stroke-linecap="round" stroke-linejoin="round" stroke-width="3.000000"
	d="
M55.000000,334.000000 
	C108.000000,334.000000 161.000000,334.000000 214.000000,334.000000 
"/>
<path fill="none" opacity="1.000000" stroke="#ffffff" stroke-linecap="round" stroke-linejoin="round" stroke-width="3.000000"
	d="
M46.500000,205.000000 
	C42.433170,204.965378 38.339523,204.716187 34.500000,206.500000 
"/>
<path fill="none" opacity="1.000000" stroke="#ffffff" stroke-linecap="round" stroke-linejoin="round" stroke-width="3.000000"
	d="
M237.000000,188.000000 
	C234.630875,191.130554 231.156021,187.995209 228.162262,189.522217 
	C227.526642,193.736679 228.697464,196.901260 233.000000,198.500000 
"/>
<path fill="none" opacity="1.000000" stroke="#ffffff" stroke-linecap="round" stroke-linejoin="round" stroke-width="3.000000"
	d="
M32.000000,188.000000 
	C34.369118,191.130554 37.843983,187.995209 41.007603,189.608871 
	C40.980045,193.490021 40.483521,196.991760 36.000000,198.500000 
"/>
<path fill="none" opacity="1.000000" stroke="#ffffff" stroke-linecap="round" stroke-linejoin="round" stroke-width="3.000000"
	d="
M35.000000,190.500000 
	C34.662292,195.661148 36.583035,200.895157 34.500000,206.000000 
"/>
<path fill="none" opacity="1.000000" stroke="#ffffff" stroke-linecap="round" stroke-linejoin="round" stroke-width="3.000000"
	d="
M234.000000,190.500000 
	C234.337708,195.661148 232.416962,200.895157 234.500000,206.000000 
"/>
<path fill="none" opacity="1.000000" stroke="#ffffff" stroke-linecap="round" stroke-linejoin="round" stroke-width="2.000000"
	d="
M68.500000,530.500000 
	C66.888306,530.666321 67.089409,532.255798 67.083694,533.000671 
	C66.971245,547.668335 67.000000,562.337097 67.000000,577.250000 
	C69.320923,577.250000 71.158936,577.250000 73.250000,577.250000 
	C73.250000,562.003601 73.250000,546.501770 73.250000,530.735046 
	C72.091537,530.009460 70.494423,530.716858 69.000000,530.500000 
"/>
<path fill="none" opacity="1.000000" stroke="#ffffff" stroke-linecap="round" stroke-linejoin="round" stroke-width="3.000000"
	d="
M90.000000,306.000000 
	C85.243156,308.740662 86.125084,313.197479 85.969238,317.750000 
	C88.833336,317.750000 91.166664,317.750000 94.259300,317.750000 
	C93.182404,313.488647 96.079498,308.638672 90.500000,306.000000 
"/>
<path fill="none" opacity="1.000000" stroke="#ffffff" stroke-linecap="round" stroke-linejoin="round" stroke-width="3.000000"
	d="
M178.000000,306.000000 
	C172.977951,308.922729 175.727005,313.534851 174.745010,318.148926 
	C178.037079,317.444794 181.035080,319.573425 182.937622,316.461853 
	C184.296219,314.239868 181.303665,307.702911 178.500000,306.000000 
"/>
<path fill="none" opacity="1.000000" stroke="#ffffff" stroke-linecap="round" stroke-linejoin="round" stroke-width="3.000000"
	d="
M134.000000,148.000000 
	C131.123413,149.444107 128.025696,149.039383 125.000374,148.980804 
	C102.346725,148.542297 80.580254,152.945587 59.510979,161.028625 
	C52.418308,163.749664 50.659286,166.480972 52.063354,173.487305 
	C55.066872,188.474884 58.917439,203.268143 62.959358,218.011139 
	C63.788212,221.034409 65.341644,222.466431 68.500511,222.003510 
	C77.665733,220.660309 86.808136,219.094971 96.012894,218.121979 
	C99.501656,217.753204 103.013023,217.193192 106.502625,217.110062 
	C109.619865,217.035812 111.509384,216.058517 111.974998,212.996201 
	C112.559303,209.153214 114.846336,207.857086 118.500824,207.974197 
	C125.187447,208.188522 131.775833,206.368454 138.502045,206.977417 
	C143.160156,207.399139 147.759171,208.453995 152.504730,208.056427 
	C154.423370,207.895676 156.321594,209.314163 156.385223,211.004318 
	C156.652237,218.096268 162.451202,217.437683 166.516251,217.832718 
	C177.559494,218.905899 188.595642,219.837616 199.508102,221.958344 
	C202.651169,222.569168 205.129135,221.870544 206.055328,218.013290 
	C209.584900,203.313690 213.427200,188.689209 216.956955,173.989670 
	C218.517853,167.489410 216.341248,163.462418 209.984589,161.040451 
	C197.222443,156.177948 184.022858,153.085754 170.525620,150.845673 
	C160.680420,149.211731 150.875336,148.868851 141.002258,149.097427 
	C138.659607,149.151657 136.740204,147.855347 134.500000,148.000000 
"/>
</svg>